<svg width="32" height="32" xmlns="http://www.w3.org/2000/svg" version="1.1" xml:space="preserve">
 <g>
  <title>Layer 1</title>
  <g id="Musik_icon">
   <g id="svg_1">
    <path fill="#222222" d="m28.91,13.58c-0.04,-0.09 -0.1,-0.18 -0.17,-0.25c-0.02,-0.03 -0.05,-0.06 -0.08,-0.08c-0.06,-0.05 -0.13,-0.1 -0.2,-0.14c-0.14,-0.07 -0.3,-0.11 -0.46,-0.11l-0.02,0l-5.98,0l-4.98,0l-0.5,0l-0.49,0l-0.05,0l-0.5,0l-0.5,0l-3.98,0l-6.98,0l-0.02,0c-0.17,0 -0.33,0.04 -0.47,0.11c-0.11,0.07 -0.22,0.15 -0.3,0.25c-0.06,0.07 -0.1,0.14 -0.13,0.22c-0.09,0.18 -0.12,0.39 -0.08,0.6l2.69,14.37c0.27,1.42 1.51,2.45 2.95,2.45l14.68,0c1.44,0 2.68,-1.03 2.95,-2.45l2.69,-14.35c0.01,-0.05 0.02,-0.11 0.02,-0.17l0,-0.06c-0.01,-0.14 -0.04,-0.27 -0.09,-0.39z" id="svg_2"/>
    <path fill="#222222" d="m22.97,7.03c-0.15,-0.02 -0.31,-0.03 -0.47,-0.03c-0.17,0 -0.33,0.01 -0.5,0.02c-0.46,0.04 -0.91,0.14 -1.34,0.3c-0.14,0.05 -0.27,0.1 -0.4,0.16c-0.08,0.03 -0.16,0.07 -0.23,0.11c-0.07,0.04 -0.15,0.08 -0.22,0.12c-0.1,0.05 -0.2,0.11 -0.3,0.17c-0.11,0.07 -0.21,0.14 -0.31,0.22c-0.1,0.08 -0.2,0.16 -0.29,0.24c-0.07,0.06 -0.14,0.11 -0.19,0.17c-0.02,0.01 -0.04,0.03 -0.05,0.04c-0.11,0.11 -0.21,0.21 -0.3,0.32c-0.07,0.08 -0.14,0.17 -0.21,0.26c-0.08,0.1 -0.15,0.2 -0.22,0.3c-0.01,0.01 -0.02,0.02 -0.02,0.03c-0.07,0.1 -0.13,0.21 -0.19,0.31c-0.05,0.09 -0.1,0.18 -0.15,0.27c-0.06,0.11 -0.11,0.23 -0.16,0.35c-0.01,0.04 -0.03,0.09 -0.05,0.13c-0.01,0.03 -0.02,0.05 -0.03,0.08c-0.01,0.02 -0.02,0.04 -0.02,0.06c-0.02,0.06 -0.04,0.12 -0.06,0.18c-0.08,0.25 -0.14,0.5 -0.18,0.77c-0.02,0.13 -0.04,0.26 -0.05,0.39l4.97,0l5.98,0c-0.16,-1.79 -1.19,-3.33 -2.65,-4.2c-0.7,-0.44 -1.5,-0.71 -2.36,-0.77z" id="svg_3"/>
    <path fill="#222222" d="m23.31,5.91l0.03,0.14c0.92,0.12 1.79,0.44 2.55,0.91l2.94,-4.41c0.31,-0.46 0.18,-1.08 -0.28,-1.38c-0.46,-0.31 -1.08,-0.18 -1.38,0.28l-2.17,3.25l0.93,-2.33c0.2,-0.51 -0.05,-1.09 -0.56,-1.3c-0.51,-0.2 -1.09,0.04 -1.3,0.56l-1.19,2.98c0.07,0.17 0.14,0.33 0.2,0.5c0.1,0.26 0.17,0.52 0.23,0.8z" id="svg_4"/>
    <path fill="#222222" d="m15.89,11.31c0.02,0.14 0.04,0.28 0.06,0.42c0,0.02 0.01,0.05 0.01,0.07c0.01,0.07 0.01,0.14 0.01,0.2l0.05,0c0.05,-0.64 0.19,-1.25 0.42,-1.84c0.04,-0.11 0.09,-0.22 0.14,-0.33c0.08,-0.19 0.18,-0.37 0.28,-0.56c0.06,-0.11 0.13,-0.21 0.19,-0.31c0.04,-0.07 0.09,-0.14 0.14,-0.21c0.09,-0.13 0.19,-0.26 0.3,-0.39c0.01,-0.01 0.02,-0.03 0.03,-0.04c0.08,-0.1 0.17,-0.19 0.25,-0.28c0.13,-0.14 0.27,-0.28 0.42,-0.41c0.24,-0.21 0.5,-0.41 0.77,-0.58c0.11,-0.08 0.23,-0.15 0.35,-0.21c0.04,-0.03 0.09,-0.05 0.14,-0.08c0.13,-0.07 0.26,-0.14 0.4,-0.19c0.15,-0.07 0.31,-0.13 0.47,-0.19c0.63,-0.23 1.3,-0.36 2,-0.37c0.06,-0.01 0.12,-0.01 0.18,-0.01c0.11,0 0.22,0 0.32,0.01c-0.05,-0.25 -0.12,-0.49 -0.21,-0.73c-0.9,-2.51 -3.29,-4.28 -6.11,-4.28c-3.08,0 -5.67,2.16 -6.33,5.04c1.18,0.11 2.29,0.54 3.22,1.26c1.31,0.97 2.2,2.39 2.5,4.01z" id="svg_5"/>
    <path fill="#222222" d="m14.98,12c-0.02,-0.17 -0.05,-0.34 -0.08,-0.51c-0.25,-1.37 -1,-2.57 -2.1,-3.39c-0.81,-0.62 -1.76,-0.98 -2.78,-1.07c-0.17,-0.02 -0.34,-0.03 -0.52,-0.03c-2.86,0 -5.22,2.2 -5.47,5l6.97,0l3.98,0z" id="svg_6"/>
   </g>
  </g>
 </g>

</svg>