<svg width="32" height="32" xmlns="http://www.w3.org/2000/svg" fill="none">

 <g>
  <title>Layer 1</title>
  <path stroke="null" id="svg_1" fill="#EDEDED" d="m7.04301,29.30326a10.70189,10.70189 0 0 0 4.47976,2.22735c0.15773,0.05159 0.26386,-0.15478 0.15773,-0.25797c-3.53045,-3.3683 -1.59054,-7.01372 -0.15773,-8.65733c1.02154,-1.17338 2.47647,-3.10591 2.37034,-5.69736c0,-0.25944 0.26534,-0.46729 0.47466,-0.31103c2.00329,1.03629 3.37272,3.3167 3.74124,5.18143c0.58079,-0.569 0.79159,-1.4505 0.79159,-2.22735c0,-0.25944 0.31546,-0.46729 0.57932,-0.25944c1.89715,1.70994 5.16374,7.51344 -0.10613,12.0728c-0.10466,0.10466 0,0.31251 0.10613,0.26091a12.9145,12.9145 0 0 0 4.42669,-2.12564c8.58952,-6.6334 3.00272,-18.39664 -0.63386,-22.28234c-0.47318,-0.46729 -1.31636,-0.15625 -1.31636,0.51741c-0.05307,1.40039 -0.47466,2.95408 -1.58022,3.99036c-0.84318,-3.52307 -3.65279,-7.52523 -7.6579,-9.49461c-0.52625,-0.25944 -1.15863,0.15478 -1.10557,0.72525c0.10319,4.82027 -3.04105,7.88933 -5.78138,11.87969c-2.42488,3.57467 -4.0051,10.15648 1.2117,14.45787z"/>
 </g>
</svg>